<?xml version="1.0" standalone="no"?>
<!DOCTYPE svg PUBLIC "-//W3C//DTD SVG 20010904//EN"
 "http://www.w3.org/TR/2001/REC-SVG-20010904/DTD/svg10.dtd">
<svg version="1.0" xmlns="http://www.w3.org/2000/svg"
 width="916.000000pt" height="916.000000pt" viewBox="0 0 916.000000 916.000000"
 preserveAspectRatio="xMidYMid meet">
<metadata>
Created by potrace 1.14, written by Peter Selinger 2001-2017
</metadata>
<g transform="translate(0.000000,916.000000) scale(0.100000,-0.100000)"
fill="#000000" stroke="none">
<path d="M316 7919 c-62 -15 -153 -68 -197 -116 -22 -24 -55 -74 -72 -111 -29
-61 -32 -76 -32 -163 0 -90 2 -99 37 -171 45 -91 103 -147 196 -191 l67 -32
1687 -5 1686 -5 -287 -590 -288 -590 -904 -5 c-863 -5 -906 -6 -949 -24 -103
-44 -184 -120 -229 -215 -23 -49 -26 -69 -26 -156 0 -75 5 -113 19 -150 13
-33 311 -438 910 -1235 490 -652 1164 -1549 1498 -1995 392 -522 625 -825 657
-851 151 -128 377 -121 522 15 65 62 2292 3011 2326 3081 21 43 28 74 31 140
4 80 0 98 -63 325 -36 132 -69 248 -71 258 -5 16 10 17 208 17 117 1 246 5
286 9 91 11 181 54 239 113 75 78 1516 2020 1553 2092 33 65 35 76 35 165 0
87 -3 102 -32 163 -44 93 -100 151 -191 196 l-76 37 -1566 0 -1566 0 -76 -38
c-141 -69 -86 30 -929 -1665 -625 -1255 -761 -1535 -770 -1586 -29 -169 68
-349 229 -424 51 -24 69 -27 167 -27 101 0 115 2 168 29 33 15 82 52 110 81
48 48 107 161 747 1443 l695 1392 948 0 948 0 -41 -57 c-22 -32 -219 -296
-438 -588 l-397 -530 -445 -5 -445 -5 -67 -33 c-85 -42 -167 -128 -199 -209
-17 -43 -23 -79 -23 -143 0 -79 8 -115 112 -483 62 -219 112 -405 112 -413 0
-16 -1777 -2374 -1789 -2373 -3 0 -486 640 -1073 1422 l-1067 1422 627 5 627
5 68 32 c141 67 111 14 679 1179 326 667 511 1059 519 1094 17 77 5 171 -30
246 -41 89 -99 147 -189 192 l-76 37 -2035 2 c-1206 0 -2052 -3 -2075 -8z"/>
</g>
</svg>
